# xmcd
# 
# Track frame offsets:
#     150
#     26987
#     53575
#     74205
#     92747
#     113975
#     128952
#     148240
#     165829
#     188740
# 
# Disc length: 2850
# 
# Revision: 0
# Processed by: cddbd v1.5.2PL0 Copyright (c) Steve Scherf et al.
# Submitted via: fre:ac v1.0.31
# 
DISCID=920b200a
DTITLE=naNami - この歌がいつか誰かの決心になりますように
DYEAR=2017
DGENRE=Anime
TTITLE0=はじめてのチュウ
TTITLE1=secret base～君がくれたもの～
TTITLE2=ロマンティックあげるよ
TTITLE3=いつもそこに君がいた
TTITLE4=やつらの足音のバラード
TTITLE5=炎のたからもの
TTITLE6=想い出がいっぱい
TTITLE7=夢を信じて
TTITLE8=世界が終るまでは…
TTITLE9=SAYONARA
EXTD=
EXTT0=
EXTT1=
EXTT2=
EXTT3=
EXTT4=
EXTT5=
EXTT6=
EXTT7=
EXTT8=
EXTT9=
PLAYORDER=
